<svg id="Layer_1" data-name="Layer 1" xmlns="http://www.w3.org/2000/svg" viewBox="65 72 145 155"><defs><style>.cls-1{fill:#f7cfa5;}.cls-2{fill:#fff;}</style></defs><path class="cls-1" d="M178.25,180.89S190.05,175.25,199,159c14.45-26.15,8.67-70.33-20.78-86.84-31.51-17.67-53.88,10.43-53.88,10.43s8.18-1.29,24.47,7.07c31.07,16,42.65,50.17,37.64,75.07C184.72,173.47,178.25,180.89,178.25,180.89Z"/><path class="cls-1" d="M158.52,187.64a43.26,43.26,0,0,1-18.11-4c-12.43-5.67-21.64-15.84-26.65-29.4-6.55-17.75-5.54-40.48,2.58-57.92a94.38,94.38,0,0,1,8-13.8l3.31,2.29A91.78,91.78,0,0,0,120,98c-6.3,13.54-9.5,35.74-2.45,54.84,4.62,12.53,13.11,21.91,24.54,27.13,19.17,8.76,36.14-1.35,36.31-1.46l2.1,3.44A45.43,45.43,0,0,1,158.52,187.64Z"/><path class="cls-1" d="M181.28,181.17l-3.62-1.5c.08-.2.15-.44.23-.68s.16-.52.24-.75c2.31-6.27,2.45-12.14.41-17.44-3.17-8.21-11.19-14-22.59-16.44-11.7-2.45-25.48-1-38.79,4.15a78.92,78.92,0,0,0-18,9.69c-.44.31-.86.63-1.29,1-.63.48-1.24,1-1.85,1.46l-2.47-3c.63-.52,1.29-1,2-1.54l1.36-1a83,83,0,0,1,18.87-10.18c14-5.4,28.57-6.94,41-4.32,12.74,2.67,21.77,9.37,25.43,18.86,2.4,6.21,2.27,13-.38,20.2-.06.17-.12.36-.18.55C181.52,180.5,181.41,180.86,181.28,181.17Z"/><path class="cls-1" d="M149,196.75c-17.72,0-37-9.48-50.78-26.73-1.39-1.74-2.72-3.54-4-5.37-.49-.73-1-1.47-1.42-2.21-.34-.54-.67-1.08-1-1.63l3.4-2c.3.52.62,1,.94,1.55.43.7.89,1.4,1.35,2.1,1.17,1.73,2.43,3.45,3.75,5.1C121,192.07,152,200,172,185.72c.52-.38,1-.77,1.55-1.18s.91-.75,1.35-1.14l2.62,3q-.73.64-1.5,1.26c-.57.45-1.14.89-1.72,1.31A42.92,42.92,0,0,1,149,196.75Z"/><path class="cls-1" d="M135.48,203.11a66.69,66.69,0,0,1-8.77-.58c-17.84-2.34-33.68-11.81-42.4-25.32-.6-.94-1.18-1.91-1.71-2.89-.38-.68-.74-1.38-1.08-2.09l3.64-1.75c.31.65.64,1.29,1,1.91.49.89,1,1.77,1.57,2.63,8.08,12.53,22.86,21.32,39.54,23.52,13.7,1.8,27.15-.91,37.86-7.65s17.23-16.44,18.7-27.57-2.42-22.31-10.93-31.48S152,116.46,138.28,114.66C117.75,112,98,119.56,87.91,134c-.29.41-.56.82-.83,1.24s-.74,1.21-1,1.67l-3.31-2.34c.3-.5.61-1,.92-1.5s.6-.92.92-1.37c10.93-15.7,32.2-24,54.2-21.08,14.64,1.93,27.79,8.47,37,18.43s13.59,22.41,12,34.75-8.93,23.17-20.56,30.47A59.59,59.59,0,0,1,135.48,203.11Z"/><path class="cls-2" d="M125.46,86.55a46.69,46.69,0,0,1,19.86,4.64c22.93,10.72,32.44,28.31,36.39,41.17,4.61,15,3.57,30,.66,37.45a63.51,63.51,0,0,1-7,13.52h0a2.48,2.48,0,0,0-.19.26C173,186.8,152.89,215,111.5,215c-.81,0-1.65,0-2.47,0-9.33-.25-21.43-3.5-27.42-11.88-3.89-5.44-4.57-12.36-2-20.56,3.08-9.84,14-19.67,14.14-19.77l2.56-2.27-1.84-2.9a72.7,72.7,0,0,1-7-15.63c-2.49-8-4.45-19.78.41-30.17C95.28,96,109.32,86.55,125.46,86.55m0-4c-17.54,0-33.07,10.14-41.21,27.53-10.52,22.5,6.82,49.66,6.82,49.66S79.22,170.24,75.76,181.3c-8.1,26,14.3,37.16,33.16,37.66l2.58,0c46.19,0,67-33.26,67.06-33.26h0a66.59,66.59,0,0,0,7.56-14.46c6.23-16,5.29-63-39.1-83.73a50.86,50.86,0,0,0-21.56-5Z"/><path class="cls-2" d="M163.69,216.71s-2.6-21.29,18.51-39.12c7.85-6.62,14.07-8.05,16.06-6.6s.19,4.28-1.12,4.94C166.81,191.29,163.69,216.71,163.69,216.71Z"/><path class="cls-2" d="M186.64,189.64h-2.21v-1H190v1h-2.22v5.79h-1.13Zm4.54-1h1.76l2.21,5.24,2.21-5.24h1.78v6.82H198v-5.54l-2.31,5.54h-1.11l-2.31-5.54v5.54h-1.1Z"/></svg>