<svg id="Layer_1" data-name="Layer 1" xmlns="http://www.w3.org/2000/svg" viewBox="0 0 402.1 285.67"><defs><style>.cls-1{fill:#fff;}.cls-2{fill:#f7cfa5;}</style></defs><path class="cls-1" d="M109,146.41h4.22c.18,4.94,3.8,7.79,10,7.79s10-3,10-7.79c0-5.11-4.94-6-10.23-6.77-6.3-.89-13.07-2.08-13.07-10.34,0-6.9,5.35-11.59,13.37-11.59,7.85,0,13.08,4.46,13.31,11.23h-4.1c-.23-4.46-3.62-7.31-9.21-7.31s-9.21,3-9.21,7.55c0,5,4.87,5.82,10.16,6.66,6.3,1,13.14,2.14,13.14,10.46,0,7.25-5.59,11.82-14.15,11.82S109.15,153.67,109,146.41Z"/><path class="cls-1" d="M142.31,161.21h4c1.55,4,5.17,5.95,10,5.95,6.3,0,10.7-3.09,10.7-10.76v-4.93c-2.08,4.22-6,6.47-11.11,6.47-7.85,0-13.91-4.75-13.91-14.79V128h4v15.16c0,7.25,4.16,11.11,10.52,11.11S167,150.34,167,143.15V128h4v28.29c0,10.22-6.47,14.38-14.68,14.38C149.68,170.66,144.15,167.57,142.31,161.21Z"/><path class="cls-1" d="M175.71,142c0-9.75,5.82-14.8,14.5-14.8s14.5,5.05,14.5,14.8v15.33h-4V142c0-7.25-4.16-11.12-10.52-11.12s-10.52,3.87-10.52,11.12v15.33h-4Z"/><path class="cls-1" d="M209.35,142.85c0-9.15,6.54-15.63,15.81-15.63s15.75,6.36,15.75,15.63v14.5h-3.69V150.1c-2.08,5.23-6.95,8-12.66,8C216.3,158.12,209.35,152.24,209.35,142.85Zm27.57-.18c0-6.77-4.75-11.77-11.76-11.77s-11.77,5-11.77,11.77,4.75,11.77,11.77,11.77S236.92,149.45,236.92,142.67Z"/><path class="cls-1" d="M245.54,142.85c0-9.45,6.6-15.63,15.69-15.63,9.33,0,15.87,6.54,15.87,15.57s-6.6,15.33-15.21,15.33c-5.59,0-10.17-2.61-12.37-7.07v18.84h-4Zm27.52-.18c0-6.77-4.76-11.77-11.77-11.77s-11.77,5-11.77,11.77,4.7,11.77,11.77,11.77S273.06,149.45,273.06,142.67Z"/><path class="cls-1" d="M281.74,146.53V117.59h4V128H303v3.63H285.72v14.91c0,5.35,3,7.91,7.55,7.91s7.54-2.5,7.54-7.91v-.65h3.87v.65c0,7.73-4.64,11.59-11.41,11.59S281.74,154.26,281.74,146.53Z"/><path class="cls-1" d="M309.37,128h4v29.36h-4Z"/><path class="cls-1" d="M345.57,169.89V151.05c-2.2,4.46-6.78,7.07-12.37,7.07-8.61,0-15.21-6.3-15.21-15.33s6.54-15.57,15.87-15.57c9.09,0,15.69,6.18,15.69,15.63v27Zm0-27.22c0-6.77-4.7-11.77-11.77-11.77S322,135.9,322,142.67s4.76,11.77,11.77,11.77S345.57,149.45,345.57,142.67Z"/><path class="cls-2" d="M82.39,150.92s5.22-2.5,9.19-9.69c6.39-11.56,3.83-31.1-9.19-38.4-13.94-7.82-23.83,4.61-23.83,4.61s3.62-.57,10.82,3.13c13.74,7.05,18.87,22.19,16.65,33.2A17.93,17.93,0,0,1,82.39,150.92Z"/><path class="cls-2" d="M73.66,153.9a19.13,19.13,0,0,1-8-1.75,22.4,22.4,0,0,1-11.78-13A35,35,0,0,1,55,113.52a41.84,41.84,0,0,1,3.54-6.1l1.47,1a40.68,40.68,0,0,0-3.4,5.84c-2.78,6-4.2,15.81-1.08,24.25a20.64,20.64,0,0,0,10.85,12,18.3,18.3,0,0,0,16.06-.65l.93,1.52A20.17,20.17,0,0,1,73.66,153.9Z"/><path class="cls-2" d="M83.73,151l-1.6-.66a2.64,2.64,0,0,0,.1-.3,2.55,2.55,0,0,1,.11-.33,10.72,10.72,0,0,0,.18-7.71c-1.4-3.64-5-6.22-10-7.28a31,31,0,0,0-17.16,1.84,34.64,34.64,0,0,0-7.95,4.28c-.2.14-.38.28-.57.43L46,142l-1.1-1.34c.29-.23.57-.46.87-.68l.6-.45a36.35,36.35,0,0,1,8.35-4.5,32.62,32.62,0,0,1,18.13-1.91c5.64,1.18,9.64,4.14,11.25,8.34a12.34,12.34,0,0,1-.17,8.94c0,.07,0,.15-.07.24A4.72,4.72,0,0,1,83.73,151Z"/><path class="cls-2" d="M69.46,157.93c-7.84,0-16.35-4.19-22.46-11.82-.62-.77-1.21-1.57-1.75-2.38-.21-.32-.43-.64-.63-1l-.44-.72,1.51-.89c.13.23.27.46.41.68s.4.62.6.93c.52.77,1.08,1.53,1.66,2.26,8.69,10.84,22.42,14.37,31.26,8,.23-.16.46-.34.69-.52l.59-.5,1.16,1.31c-.21.19-.43.38-.66.56s-.51.39-.76.57A18.93,18.93,0,0,1,69.46,157.93Z"/><path class="cls-2" d="M63.47,160.75a30,30,0,0,1-3.88-.26c-7.88-1-14.89-5.22-18.75-11.2-.27-.42-.52-.84-.76-1.28s-.32-.61-.47-.92l1.61-.77c.13.28.28.56.43.84s.45.78.69,1.16c3.57,5.54,10.11,9.43,17.49,10.4a25.24,25.24,0,0,0,16.74-3.38A16.43,16.43,0,0,0,80,129.22a25.29,25.29,0,0,0-15.3-7.6c-9.08-1.19-17.82,2.17-22.28,8.58-.12.18-.25.36-.36.55s-.33.53-.45.74l-1.46-1c.13-.22.26-.45.4-.66s.27-.41.41-.61c4.83-7,14.24-10.6,24-9.32A27,27,0,0,1,81.32,128a18.22,18.22,0,0,1-3.8,28.85A26.41,26.41,0,0,1,63.47,160.75Z"/><path class="cls-1" d="M59,109.19a20.63,20.63,0,0,1,8.78,2,29.2,29.2,0,0,1,16.1,18.22c2,6.65,1.58,13.25.29,16.56a28.11,28.11,0,0,1-3.11,6h0a1,1,0,0,0-.08.11c-1,1.42-9.85,13.88-28.15,13.88h-1.1c-4.12-.11-9.47-1.55-12.12-5.26-1.73-2.4-2-5.46-.89-9.09,1.36-4.35,6.2-8.7,6.25-8.74l1.13-1-.81-1.28a32.08,32.08,0,0,1-3.08-6.91c-1.11-3.55-2-8.75.18-13.35,3.26-7,9.47-11.15,16.61-11.15m0-1.78c-7.76,0-14.63,4.49-18.22,12.18-4.66,9.95,3,22,3,22s-5.24,4.65-6.77,9.54c-3.58,11.48,6.33,16.44,14.67,16.66h1.14c20.43,0,29.63-14.71,29.66-14.71h0a29.34,29.34,0,0,0,3.34-6.4c2.76-7.08,2.34-27.85-17.29-37A22.58,22.58,0,0,0,59,107.41Z"/><path class="cls-1" d="M76,166.76s-1.15-9.41,8.19-17.3c3.47-2.93,6.22-3.56,7.1-2.92s.08,1.89-.49,2.19C77.33,155.52,76,166.76,76,166.76Z"/><path class="cls-1" d="M351.71,154.42a3,3,0,1,1,3,2.93A2.86,2.86,0,0,1,351.71,154.42Zm5.46,0a2.46,2.46,0,1,0-2.46,2.42A2.34,2.34,0,0,0,357.17,154.42Zm-3.6-1.41H355a.91.91,0,0,1,1,.92.86.86,0,0,1-.7.9l.79,1h-.64l-.71-1h-.65v1h-.54Zm1.4,1.39a.47.47,0,1,0,0-.93h-.86v.93Z"/><path class="cls-1" d="M86.1,154.79h-1v-.46h2.45v.46h-1v2.56h-.5Zm2-.46h.78l1,2.32,1-2.32h.79v3h-.5V154.9l-1,2.45h-.49l-1-2.45v2.45h-.49Z"/></svg>